<svg width="119" height="119" viewBox="0 0 119 119" fill="none" xmlns="http://www.w3.org/2000/svg">
<path d="M40 42C40 40.8954 40.8954 40 42 40H77C78.1046 40 79 40.8954 79 42V77C79 78.1046 78.1046 79 77 79H42C40.8954 79 40 78.1046 40 77V42Z" fill="#E3E80F"/>
<path d="M54.8513 54.2727H56.8769V66.2301C56.8769 67.2973 56.6809 68.204 56.2888 68.9499C55.8968 69.6959 55.3441 70.2622 54.6308 70.6488C53.9175 71.0354 53.0762 71.2287 52.107 71.2287C51.1922 71.2287 50.3782 71.0626 49.6649 70.7305C48.9516 70.3929 48.3908 69.9137 47.9824 69.293C47.574 68.6722 47.3698 67.9344 47.3698 67.0795H49.3627C49.3627 67.5533 49.4798 67.9671 49.7139 68.321C49.9535 68.6695 50.2802 68.9418 50.694 69.1378C51.1079 69.3338 51.5789 69.4318 52.107 69.4318C52.6896 69.4318 53.1851 69.3093 53.5935 69.0643C54.0019 68.8192 54.3123 68.4599 54.5246 67.9862C54.7424 67.507 54.8513 66.9216 54.8513 66.2301V54.2727ZM70.0839 58.4545C69.9859 57.6269 69.5884 56.9844 68.8915 56.527C68.1945 56.0696 67.3396 55.8409 66.3268 55.8409C65.5863 55.8409 64.9383 55.9607 64.3829 56.2003C63.833 56.4399 63.4028 56.7693 63.0925 57.1886C62.7875 57.6078 62.6351 58.0843 62.6351 58.6179C62.6351 59.0644 62.7413 59.4483 62.9536 59.7695C63.1714 60.0853 63.4491 60.3494 63.7867 60.5618C64.1243 60.7687 64.4782 60.9402 64.8485 61.0763C65.2188 61.207 65.5591 61.3132 65.8695 61.3949L67.5683 61.8523C68.0039 61.9666 68.4885 62.1245 69.0222 62.326C69.5612 62.5275 70.0758 62.8024 70.5658 63.1509C71.0613 63.494 71.4697 63.935 71.791 64.4741C72.1122 65.0131 72.2729 65.6747 72.2729 66.4588C72.2729 67.3627 72.036 68.1795 71.5623 68.9091C71.094 69.6387 70.4079 70.2186 69.504 70.6488C68.6056 71.079 67.5139 71.294 66.2288 71.294C65.0309 71.294 63.9936 71.1007 63.117 70.7141C62.2458 70.3275 61.5597 69.7885 61.0587 69.0969C60.5632 68.4054 60.2828 67.6023 60.2175 66.6875H62.3084C62.3628 67.3191 62.5752 67.8419 62.9454 68.2557C63.3212 68.6641 63.7949 68.969 64.3666 69.1705C64.9438 69.3665 65.5645 69.4645 66.2288 69.4645C67.002 69.4645 67.6963 69.3393 68.3116 69.0888C68.9269 68.8329 69.4142 68.4789 69.7736 68.027C70.1329 67.5696 70.3126 67.036 70.3126 66.4261C70.3126 65.8707 70.1574 65.4188 69.8471 65.0703C69.5367 64.7218 69.1283 64.4387 68.6219 64.2209C68.1155 64.0031 67.5683 63.8125 66.9802 63.6491L64.922 63.0611C63.6152 62.6854 62.5806 62.149 61.8183 61.4521C61.056 60.7551 60.6748 59.843 60.6748 58.7159C60.6748 57.7794 60.928 56.9626 61.4344 56.2656C61.9463 55.5632 62.6324 55.0187 63.4927 54.6321C64.3584 54.2401 65.3249 54.044 66.3922 54.044C67.4703 54.044 68.4286 54.2373 69.2672 54.6239C70.1057 55.0051 70.77 55.5278 71.2601 56.1921C71.7556 56.8564 72.0169 57.6106 72.0442 58.4545H70.0839Z" fill="#0D0B0B"/>
<path d="M42 41H77V39H42V41ZM78 42V77H80V42H78ZM77 78H42V80H77V78ZM41 77V42H39V77H41ZM42 78C41.4477 78 41 77.5523 41 77H39C39 78.6569 40.3431 80 42 80V78ZM78 77C78 77.5523 77.5523 78 77 78V80C78.6569 80 80 78.6569 80 77H78ZM77 41C77.5523 41 78 41.4477 78 42H80C80 40.3431 78.6569 39 77 39V41ZM42 39C40.3431 39 39 40.3431 39 42H41C41 41.4477 41.4477 41 42 41V39Z" fill="white" fill-opacity="0.1"/>
</svg>
